<?xml version="1.0" encoding="utf-8"?>
<!-- Generator: Adobe Illustrator 27.9.0, SVG Export Plug-In . SVG Version: 6.00 Build 0)  -->
<svg version="1.1" id="Layer_2_00000141419790177601227000000009568318744486321572_"
	 xmlns="http://www.w3.org/2000/svg" xmlns:xlink="http://www.w3.org/1999/xlink" x="0px" y="0px" viewBox="0 0 800 125.6"
	 style="enable-background:new 0 0 800 125.6;" xml:space="preserve">
<style type="text/css">
	.st0{fill:#3538CD;}
</style>
<g id="Layer_2-2">
	<g id="Layer_1-2">
		<g>
			<path class="st0" d="M78.7,125.6H7.5c-4.1,0-7.5-3.4-7.5-7.5V52.5C0,48.4,3.4,45,7.5,45h71.2c4.1,0,7.5,3.4,7.5,7.5v33.7
				c0,4.1-3.4,7.5-7.5,7.5H30c-1,0-1.9,0.9-1.9,1.9v2.8c0,0.9,1,1.8,1.9,1.8h48.7c4.1,0,7.5,3.4,7.5,7.5v10.3
				C86.2,122.2,82.8,125.6,78.7,125.6L78.7,125.6z M59.9,70.1c0-0.9-1-1.9-1.9-1.9H29.9c-1,0-1.9,0.9-1.9,1.9v2.8
				c0,0.9,1,1.8,1.9,1.8H58c1,0,1.9-0.9,1.9-1.8V70.1z"/>
			<path class="st0" d="M186.2,103.4l-19.9,19.9c-1.5,1.5-3,2.2-5.2,2.2h-30c-2.2,0-3.7-0.7-5.2-2.2L106,103.4c-1.8-1.9-3-4.3-3-7.5
				V52.5c0-4.1,3.4-7.5,7.5-7.5h13.1c4.1,0,7.5,3.4,7.5,7.5v35.8c0,1.5,0.4,2.2,1.3,3.2l6,6c0.6,0.6,1.1,0.9,1.9,0.9h11.6
				c0.7,0,1.3-0.4,1.9-0.9l6-6c0.9-0.9,1.3-1.7,1.3-3.2V52.5c0-4.1,3.4-7.5,7.5-7.5h13.1c4.1,0,7.5,3.4,7.5,7.5v43.4
				C189.2,99.1,188,101.6,186.2,103.4L186.2,103.4L186.2,103.4z"/>
			<path class="st0" d="M284.8,125.6h-71.2c-4.1,0-7.5-3.4-7.5-7.5V52.5c0-4.1,3.4-7.5,7.5-7.5h71.2c4.1,0,7.5,3.4,7.5,7.5v33.7
				c0,4.1-3.4,7.5-7.5,7.5h-48.7c-0.9,0-1.9,0.9-1.9,1.9v2.8c0,0.9,0.9,1.8,1.9,1.8h48.7c4.1,0,7.5,3.4,7.5,7.5v10.3
				C292.3,122.2,288.9,125.6,284.8,125.6L284.8,125.6z M266,70.1c0-0.9-1-1.9-1.9-1.9h-28.1c-0.9,0-1.9,0.9-1.9,1.9v2.8
				c0,0.9,0.9,1.8,1.9,1.8h28.1c1,0,1.9-0.9,1.9-1.8V70.1z"/>
			<path class="st0" d="M378.4,72.2H341c-1,0-1.9,0.9-1.9,1.9v44c0,4.1-3.4,7.5-7.5,7.5h-13.1c-4.1,0-7.5-3.4-7.5-7.5V52.5
				c0-4.1,3.4-7.5,7.5-7.5h59.9c4.1,0,7.5,3.4,7.5,7.5v12.2C385.9,68.8,382.5,72.2,378.4,72.2L378.4,72.2L378.4,72.2z"/>
			<path class="st0" d="M477.8,125.6h-71.2c-4.1,0-7.5-3.4-7.5-7.5V52.5c0-4.1,3.4-7.5,7.5-7.5h71.2c4.1,0,7.5,3.4,7.5,7.5v33.7
				c0,4.1-3.4,7.5-7.5,7.5H429c-1,0-1.9,0.9-1.9,1.9v2.8c0,0.9,1,1.8,1.9,1.8h48.7c4.1,0,7.5,3.4,7.5,7.5v10.3
				C485.2,122.2,481.9,125.6,477.8,125.6L477.8,125.6z M459,70.1c0-0.9-1-1.9-1.9-1.9h-28.1c-1,0-1.9,0.9-1.9,1.9v2.8
				c0,0.9,1,1.8,1.9,1.8h28.1c1,0,1.9-0.9,1.9-1.8V70.1z"/>
			<path class="st0" d="M582.7,125.6h-71.2c-4.1,0-7.5-3.4-7.5-7.5V52.5c0-4.1,3.4-7.5,7.5-7.5h48.7c1,0,1.9-1,1.9-1.9V7.5
				c0-4.1,3.4-7.5,7.5-7.5h13.1c4.1,0,7.5,3.4,7.5,7.5V118C590.2,122.1,586.8,125.5,582.7,125.6L582.7,125.6L582.7,125.6z M562.1,74
				c0-0.9-1-1.9-1.9-1.9h-26.2c-1,0-1.8,0.9-1.8,1.9v22.5c0,0.9,1,1.9,1.8,1.9h26.2c1,0,1.9-0.9,1.9-1.9V74z"/>
			<path class="st0" d="M687.6,125.6h-71.2c-4.1,0-7.5-3.4-7.5-7.5V52.5c0-4.1,3.4-7.5,7.5-7.5h71.2c4.1,0,7.5,3.4,7.5,7.5v33.7
				c0,4.1-3.4,7.5-7.5,7.5h-48.7c-1,0-1.9,0.9-1.9,1.9v2.8c0,0.9,1,1.8,1.9,1.8h48.7c4.1,0,7.5,3.4,7.5,7.5v10.3
				C695.1,122.2,691.7,125.6,687.6,125.6L687.6,125.6z M668.9,70.1c0-0.9-1-1.9-1.9-1.9h-28.1c-1,0-1.9,0.9-1.9,1.9v2.8
				c0,0.9,1,1.8,1.9,1.8H667c1,0,1.9-0.9,1.9-1.8V70.1z"/>
			<path class="st0" d="M792.5,125.6h-13.1c-4.1,0-7.5-3.4-7.5-7.5v-44c0-0.9-1-1.9-1.9-1.9h-26.2c-1,0-1.8,0.9-1.8,1.9v44
				c0,4.1-3.4,7.5-7.5,7.5h-13.1c-4.1,0-7.5-3.4-7.5-7.5V52.5c0-4.1,3.4-7.5,7.5-7.5h71.2c4.1,0,7.5,3.4,7.5,7.5v65.6
				C800,122.2,796.6,125.5,792.5,125.6L792.5,125.6L792.5,125.6z"/>
		</g>
	</g>
</g>
</svg>
